# xmcd
#
# Track frame offsets:
# 150
# 11223
# 21415
# 33965
# 46753
# 58180
# 70465
# 89438
# 105890
# 115783
# 128278
# 147115
# 160930
# 178035
# 191988
# 204888
# 221495
# 248843
# 261020
# 272580
#
# Disc length: 3884 seconds
#
# Revision: 0
# Processed by: cddbd v1.5.1PL0 Copyright (c) Steve Scherf et al.
# Submitted via: Audion 3.0.2 (http://www.panic.com/audion/)
#
DISCID=160f2a14
DTITLE=Various Artist - Hajimete no Blues Vol. 2 - Evening Side
DYEAR=1900
DGENRE=
TTITLE0=I Play Dirty/Little Milton
TTITLE1=She Suits Me to a Tee/Buddy Guy
TTITLE2=Off the Wall/Little Walter
TTITLE3=Forty Four/Howlin' Wolf
TTITLE4=Sweet Home Chicago/Junior Parker
TTITLE5=Things I Used to Do/Chuck Berry
TTITLE6=T' Aint Nobody's Bizness if I Do/Otis Spann
TTITLE7=I Guess I Showed Her/Robert Cray
TTITLE8=Got to Use Your Head/Buddy Guy
TTITLE9=One Way Out/Sonny Boy Williamson
TTITLE10=Same Old Blues/Clarence "Gatemouth" Brown
TTITLE11=Tanya/Earl Hooker
TTITLE12=Lucky Lou/Jody Williams
TTITLE13=Before You Accuse Me/Bo Diddley
TTITLE14=Hoochie Coochie Man/Muddy Waters
TTITLE15=Raggedy and Dirty/Luther Allison
TTITLE16=The Creeper/The James Cotton Blues Band
TTITLE17=Cry, Cry, Cry/Bobby "Blue" Bland
TTITLE18=Rainin' in My Heart/Slim Harpo
TTITLE19=The Lowdown/B.B. King
EXTD=
EXTT0=
EXTT1=
EXTT2=
EXTT3=
EXTT4=
EXTT5=
EXTT6=
EXTT7=
EXTT8=
EXTT9=
EXTT10=
EXTT11=
EXTT12=
EXTT13=
EXTT14=
EXTT15=
EXTT16=
EXTT17=
EXTT18=
EXTT19=
PLAYORDER=
